<?xml version="1.0" encoding="UTF-8" standalone="no"?>
<!-- Created with Inkscape (http://www.inkscape.org/) -->

<svg
   width="413.42715mm"
   height="170.42465mm"
   viewBox="0 0 413.42715 170.42465"
   version="1.1"
   id="svg1"
   xml:space="preserve"
   inkscape:version="1.3.2 (091e20e, 2023-11-25, custom)"
   sodipodi:docname="ollama.svg"
   xmlns:inkscape="http://www.inkscape.org/namespaces/inkscape"
   xmlns:sodipodi="http://sodipodi.sourceforge.net/DTD/sodipodi-0.dtd"
   xmlns="http://www.w3.org/2000/svg"
   xmlns:svg="http://www.w3.org/2000/svg"><sodipodi:namedview
     id="namedview1"
     pagecolor="#ffffff"
     bordercolor="#000000"
     borderopacity="0.25"
     inkscape:showpageshadow="2"
     inkscape:pageopacity="0.0"
     inkscape:pagecheckerboard="0"
     inkscape:deskcolor="#d1d1d1"
     inkscape:document-units="mm"
     inkscape:zoom="0.2560658"
     inkscape:cx="445.19807"
     inkscape:cy="1009.5062"
     inkscape:window-width="1920"
     inkscape:window-height="1009"
     inkscape:window-x="3832"
     inkscape:window-y="-8"
     inkscape:window-maximized="1"
     inkscape:current-layer="layer1" /><defs
     id="defs1" /><g
     inkscape:label="Layer 1"
     inkscape:groupmode="layer"
     id="layer1"
     transform="translate(74.879039,-36.791921)"><g
       style="line-height:1;fill:currentColor;fill-rule:evenodd"
       id="g1"
       transform="matrix(3.0526643,0,0,3.0526643,79.07165,98.543726)"><path
         d="M 11.333,2 C 8.374,2 6.061,2.943 4.393,4.884 2.78,6.717 2,9.09 2,12.027 2,14.938 2.78,17.31 4.394,19.143 6.06,21.03 8.374,22 11.333,22 c 2.931,0 5.244,-0.943 6.939,-2.83 1.614,-1.806 2.42,-4.178 2.42,-7.143 0,-2.965 -0.806,-5.364 -2.42,-7.17 C 16.577,2.943 14.264,2 11.332,2 Z m 0,2.776 c 1.99,0 3.523,0.62 4.599,1.914 1.049,1.294 1.587,3.073 1.587,5.337 0,2.264 -0.538,4.016 -1.587,5.283 -1.076,1.267 -2.609,1.914 -4.6,1.914 -1.99,0 -3.55,-0.674 -4.625,-1.995 -1.05,-1.294 -1.56,-3.019 -1.56,-5.202 0,-2.21 0.51,-3.935 1.56,-5.23 1.102,-1.347 2.636,-2.02 4.626,-2.02 z M 22.979,2 v 19.623 h 3.066 V 2 Z m 6.159,0 v 19.623 h 3.066 V 2 Z m 12.21,5.31 c -1.775,0 -3.173,0.296 -4.195,0.943 -1.21,0.701 -1.964,1.833 -2.26,3.37 l 3.04,0.242 c 0.161,-0.728 0.564,-1.267 1.156,-1.617 0.511,-0.323 1.184,-0.458 2.044,-0.458 1.99,0 2.986,0.89 2.986,2.722 v 0.54 l -3.04,0.08 c -2.044,0.054 -3.63,0.485 -4.76,1.294 -1.237,0.835 -1.829,2.048 -1.829,3.612 0,1.159 0.43,2.102 1.29,2.857 0.835,0.728 1.964,1.105 3.417,1.105 1.21,0 2.259,-0.216 3.146,-0.62 0.78,-0.377 1.453,-0.89 1.99,-1.59 v 1.833 h 2.852 v -8.895 c 0,-1.698 -0.43,-2.992 -1.291,-3.882 C 44.925,7.822 43.392,7.31 41.348,7.31 Z m 2.77,7.951 v 0.701 c 0,1.078 -0.43,1.968 -1.237,2.669 -0.806,0.674 -1.802,1.024 -2.985,1.024 -0.672,0 -1.21,-0.189 -1.64,-0.512 -0.431,-0.324 -0.62,-0.728 -0.62,-1.213 0,-1.614 1.129,-2.473 3.41,-2.58 l 3.073,-0.089 z M 56.572,7.31 c -1.344,0 -2.609,0.593 -3.765,1.806 V 7.687 H 49.74 v 13.936 h 3.066 v -8.356 c 0,-0.917 0.269,-1.725 0.807,-2.372 0.538,-0.7 1.237,-1.024 2.125,-1.024 1.828,0 2.743,1.05 2.743,3.18 v 8.572 h 3.066 v -8.518 c 0,-1.024 0.242,-1.806 0.78,-2.372 0.511,-0.593 1.13,-0.862 1.883,-0.862 1.075,0 1.829,0.242 2.313,0.754 0.457,0.486 0.699,1.294 0.699,2.4 v 8.598 h 3.066 v -9.138 c 0,-1.536 -0.484,-2.776 -1.398,-3.746 -0.969,-0.97 -2.152,-1.429 -3.578,-1.429 -0.941,0 -1.72,0.162 -2.34,0.485 -0.699,0.324 -1.371,0.917 -2.017,1.78 C 60.068,8.065 58.615,7.31 56.571,7.31 Z m 22.593,0 c -1.775,0 -3.174,0.296 -4.196,0.943 -1.21,0.701 -1.963,1.833 -2.26,3.37 l 3.04,0.242 c 0.161,-0.728 0.565,-1.267 1.156,-1.617 0.511,-0.323 1.184,-0.458 2.044,-0.458 1.99,0 2.986,0.89 2.986,2.722 v 0.54 l -3.04,0.08 c -2.043,0.054 -3.63,0.485 -4.76,1.294 -1.237,0.835 -1.829,2.048 -1.829,3.612 0,1.159 0.43,2.102 1.291,2.857 0.834,0.728 1.964,1.105 3.416,1.105 1.21,0 2.26,-0.216 3.147,-0.62 0.78,-0.377 1.452,-0.89 1.99,-1.59 v 1.833 H 85 V 12.728 C 85,11.03 84.57,9.736 83.709,8.846 82.741,7.822 81.208,7.31 79.164,7.31 Z m 2.77,7.951 v 0.701 c 0,1.078 -0.43,1.968 -1.237,2.669 -0.807,0.674 -1.802,1.024 -2.986,1.024 -0.672,0 -1.21,-0.189 -1.64,-0.512 -0.43,-0.324 -0.619,-0.728 -0.619,-1.213 0,-1.614 1.128,-2.473 3.41,-2.58 z"
         id="path1" /></g><g
       style="line-height:1;fill:currentColor;fill-rule:evenodd"
       id="g2"
       transform="matrix(7.7463288,0,0,7.7463288,-101.98998,29.047247)"><path
         d="m 7.905,1.09 c 0.216,0.085 0.411,0.225 0.588,0.41 0.295,0.306 0.544,0.744 0.734,1.263 0.191,0.522 0.315,1.1 0.362,1.68 a 5.054,5.054 0 0 1 2.049,-0.636 l 0.051,-0.004 c 0.87,-0.07 1.73,0.087 2.48,0.474 0.101,0.053 0.2,0.11 0.297,0.17 0.05,-0.569 0.172,-1.134 0.36,-1.644 0.19,-0.52 0.439,-0.957 0.733,-1.264 a 1.67,1.67 0 0 1 0.589,-0.41 c 0.257,-0.1 0.53,-0.118 0.796,-0.042 0.401,0.114 0.745,0.368 1.016,0.737 0.248,0.337 0.434,0.769 0.561,1.287 0.23,0.934 0.27,2.163 0.115,3.645 l 0.053,0.04 0.026,0.019 c 0.757,0.576 1.284,1.397 1.563,2.35 0.435,1.487 0.216,3.155 -0.534,4.088 l -0.018,0.021 0.002,0.003 c 0.417,0.762 0.67,1.567 0.724,2.4 l 0.002,0.03 c 0.064,1.065 -0.2,2.137 -0.814,3.19 l -0.007,0.01 0.01,0.024 c 0.472,1.157 0.62,2.322 0.438,3.486 l -0.006,0.039 a 0.651,0.651 0 0 1 -0.747,0.536 0.648,0.648 0 0 1 -0.54,-0.742 c 0.167,-1.033 0.01,-2.069 -0.48,-3.123 a 0.643,0.643 0 0 1 0.04,-0.617 l 0.004,-0.006 c 0.604,-0.924 0.854,-1.83 0.8,-2.72 -0.046,-0.779 -0.325,-1.544 -0.8,-2.273 a 0.644,0.644 0 0 1 0.18,-0.886 l 0.009,-0.006 c 0.243,-0.159 0.467,-0.565 0.58,-1.12 A 4.229,4.229 0 0 0 19.026,9.525 C 18.821,8.825 18.446,8.241 17.921,7.842 17.326,7.388 16.538,7.169 15.541,7.232 A 0.653,0.653 0 0 1 14.909,6.861 C 14.595,6.196 14.137,5.72 13.566,5.425 A 3.288,3.288 0 0 0 11.794,5.093 C 10.549,5.192 9.451,5.894 9.124,6.779 A 0.652,0.652 0 0 1 8.514,7.204 C 7.447,7.206 6.621,7.456 6.017,7.907 5.495,8.297 5.139,8.842 4.951,9.495 a 4.07,4.07 0 0 0 -0.068,1.886 c 0.112,0.558 0.331,1.02 0.582,1.269 l 0.008,0.007 c 0.212,0.207 0.257,0.53 0.109,0.785 -0.36,0.622 -0.629,1.549 -0.673,2.44 -0.05,1.018 0.186,1.902 0.719,2.536 l 0.016,0.019 a 0.643,0.643 0 0 1 0.095,0.69 C 5.163,20.363 4.986,21.379 5.177,22.179 A 0.652,0.652 0 0 1 3.908,22.477 C 3.665,21.459 3.83,20.293 4.381,18.979 L 4.395,18.944 4.387,18.932 A 4.339,4.339 0 0 1 3.789,17.623 L 3.784,17.604 A 5.764,5.764 0 0 1 3.607,15.819 c 0.044,-0.91 0.278,-1.842 0.622,-2.59 L 4.241,13.203 4.239,13.201 C 3.946,12.783 3.729,12.248 3.609,11.656 L 3.604,11.632 A 5.352,5.352 0 0 1 3.697,9.142 C 3.959,8.227 4.474,7.441 5.233,6.873 5.293,6.828 5.356,6.783 5.419,6.741 5.26,5.248 5.3,4.011 5.531,3.071 5.658,2.553 5.845,2.121 6.093,1.784 6.363,1.416 6.707,1.162 7.108,1.047 7.374,0.971 7.648,0.988 7.905,1.089 Z m 4.116,9.09 c 0.936,0 1.8,0.313 2.446,0.855 0.63,0.527 1.005,1.235 1.005,1.94 0,0.888 -0.406,1.58 -1.133,2.022 -0.62,0.375 -1.451,0.557 -2.403,0.557 -1.009,0 -1.871,-0.259 -2.493,-0.734 C 8.826,14.35 8.48,13.69 8.48,12.975 c 0,-0.707 0.398,-1.417 1.056,-1.946 0.668,-0.537 1.55,-0.849 2.485,-0.849 z m 0,0.896 a 3.07,3.07 0 0 0 -1.916,0.65 c -0.461,0.37 -0.722,0.835 -0.722,1.25 0,0.428 0.21,0.829 0.61,1.134 0.455,0.347 1.124,0.548 1.943,0.548 0.799,0 1.473,-0.147 1.932,-0.426 0.463,-0.28 0.7,-0.686 0.7,-1.257 0,-0.423 -0.246,-0.89 -0.683,-1.256 -0.484,-0.405 -1.14,-0.643 -1.864,-0.643 z m 0.662,1.21 0.004,0.004 c 0.12,0.151 0.095,0.37 -0.056,0.49 l -0.292,0.23 v 0.446 a 0.375,0.375 0 0 1 -0.376,0.373 0.375,0.375 0 0 1 -0.376,-0.373 v -0.46 l -0.271,-0.218 a 0.347,0.347 0 0 1 -0.052,-0.49 0.353,0.353 0 0 1 0.494,-0.051 l 0.215,0.172 0.22,-0.174 a 0.353,0.353 0 0 1 0.49,0.051 z m -5.04,-1.919 c 0.478,0 0.867,0.39 0.867,0.871 a 0.87,0.87 0 0 1 -0.868,0.871 0.87,0.87 0 0 1 -0.867,-0.87 0.87,0.87 0 0 1 0.867,-0.872 z m 8.706,0 c 0.48,0 0.868,0.39 0.868,0.871 a 0.87,0.87 0 0 1 -0.868,0.871 0.87,0.87 0 0 1 -0.867,-0.87 0.87,0.87 0 0 1 0.867,-0.872 z M 7.44,2.3 7.437,2.302 A 0.659,0.659 0 0 0 7.152,2.54 L 7.147,2.546 C 7.009,2.735 6.889,3.013 6.799,3.378 6.629,4.07 6.583,5.009 6.675,6.16 7.105,6.032 7.574,5.952 8.079,5.923 L 8.089,5.922 8.108,5.888 C 8.154,5.806 8.203,5.727 8.256,5.649 8.379,4.878 8.278,3.957 8.003,3.205 7.869,2.841 7.706,2.555 7.55,2.392 A 0.628,0.628 0 0 0 7.443,2.302 Z m 9.174,0.04 -0.002,0.001 a 0.628,0.628 0 0 0 -0.107,0.09 c -0.156,0.163 -0.32,0.45 -0.453,0.814 -0.29,0.794 -0.387,1.776 -0.23,2.572 l 0.058,0.097 0.008,0.014 h 0.03 A 5.184,5.184 0 0 1 17.384,6.14 C 17.47,5.016 17.422,4.097 17.256,3.418 17.166,3.053 17.046,2.775 16.907,2.586 L 16.903,2.58 A 0.659,0.659 0 0 0 16.618,2.341 h -0.004 z"
         id="path1-7" /></g></g></svg>
